/* XPM */
static const char *bitmap_singlestepback_xpm[] = {
/* columns rows colors chars-per-pixel */
"16 15 2 1",
"  c black",
". c none",
/* pixels */
"................",
"................",
"................",
"......  .  .....",
".....   .  .....",
"...     .  .....",
"..      .  .....",
".       .  .....",
"..      .  .....",
"...     .  .....",
".....   .  .....",
"......  .  .....",
"................",
"................",
"................"
};
