/* XPM */
static char *singlestep_xpm[] = {
/* columns rows colors chars-per-pixel */
"16 15 2 1",
"  c opaque",
". c #c0c0c0",
/* pixels */
"................",
"................",
"................",
".....  .  ......",
".....  .   .....",
".....  .     ...",
".....  .      ..",
".....  .       .",
".....  .      ..",
".....  .     ...",
".....  .   .....",
".....  .  ......",
"................",
"................",
"................"
};
