/* XPM */
static const char *bitmap_finger_xpm[] = {
/* columns rows colors chars-per-pixel */
"16 15 3 1",
"  c black",
". c none",
"X c white",
/* pixels */
"................",
"................",
"... ............",
".. X ...........",
". XXX ..........",
" XXX ...........",
" XX          ...",
" XXXXXXXXXXX ...",
" XXXXX       ...",
" XXXXX XXX .....",
" XXXXX     .....",
" XXXXX XXX .....",
" XXXXX     .....",
".      XXX .....",
"......     ....."
};
