/* XPM */
static char *bitmap_rewind_xpm[] = {
/* columns rows colors chars-per-pixel */
"16 15 2 1",
"  c black",
". c opaque",
/* pixels */
"................",
"................",
"................",
"......  .....  .",
".....   ....   .",
"...     ..     .",
"..      .      .",
".              .",
"..      .      .",
"...     ..     .",
".....   ....   .",
"......  .....  .",
"................",
"................",
"................"
};
