/* XPM */
static const char *bitmap_stop_xpm[] = {
"16 15 2 1",
" 	c black",
"*	c none",
"****************",
"****************",
"****************",
"****         ***",
"****         ***",
"****         ***",
"****         ***",
"****         ***",
"****         ***",
"****         ***",
"****         ***",
"****         ***",
"****************",
"****************",
"****************"};
