/* XPM */
static const char *bitmap_plus_xpm[] = {
/* columns rows colors chars-per-pixel */
"10 10 3 1 ",
"  c black",
". c white",
"X c None",
/* pixels */
"XXX....XXX",
"XXX.  .XXX",
"XXX.  .XXX",
"....  ....",
".        .",
".        .",
"....  ....",
"XXX.  .XXX",
"XXX.  .XXX",
"XXX....XXX"
};
