/* XPM */
static const char *bitmap_up_xpm[] = {
/* columns rows colors chars-per-pixel */
"9 11 2 1",
"  c black",
". c none",
/* pixels */
".... ....",
"... . ...",
".. ... ..",
". ..... .",
".       .",
".........",
"..     ..",
".........",
"..     ..",
".........",
"..     .."
};
