/* XPM */
static const char *bitmap_hand_xpm[] = {
/* columns rows colors chars-per-pixel */
"48 48 3 1",
"  c black",
". c none",
"X c white",
/* pixels */
"................................................",
"................................................",
"................................................",
"................................................",
"................................................",
"..................................... XXXXXXXX..",
"....................................  XXXXXXXX..",
"...................................  XXXXXXXXX..",
"..................................  XXXXXXXXXX..",
"......................        ..   XXXXXXXXXXX..",
".....................  XXXXXX    XXXXXXXXXXXXX..",
"....................  XXXXXXXXXXXXXXXXXXXXXXXX..",
".................... XXXXXXXXXXXXXXXXXXXXXXXXX..",
"................... XXXXXXXXXXXXXXXXXXXXXXXXXX..",
"..................  XXXX XXXXXXXXXXXXXXXXXXXXX..",
".................. XXXX .  XXXXXXXXXXXXXXXXXXX..",
".................  XXX .   XXXXXXXXXXXXXXXXXXX..",
"................. XXXX   XXXXXXXXXXXXXXXXXXXX ..",
"................  XXXX  XXXXXXXXXXXXXXXXXXX   ..",
"................ XXXXX  XXXXXXXXXXXXXXXXXXX ....",
"................  XX  XXXXXXXXXXXXXXXXXXXX  ....",
".................    XXXXXXXXXXXXXXXXXXXX  .....",
"..................  XXXXXXXXXXXX  XXXXXXX ......",
"................   XXXXX     XX    XXXXX  ......",
"...............  XXXXXX  XXX    XX XXXXX .......",
"..............  XXXXX    XXX    XX XXXXX .......",
".............  XXXXX  XX  X  XX    XXXX  .......",
"............  XXXXXX XXXX   XXXXX  XXXX ........",
"..........   XXXXX   XXX  XXXXXX  XXXX  ........",
".........  XXXXXX   XXX  XXXXXX  X XX  .........",
"........  XXXXX   . XX  XXXXX   XX X  ..........",
"......   XXXXX  ... X  XXXXX  X   X  ...........",
".....  XXXXXX  ....   XXXXX  XXX    ............",
"....  XXXXXX  ...... XXXX   XXXX   .............",
"...  XXXXXX  .......  X   XXXX   ...............",
"..  XXXXXX  .........    XXXX  .................",
".. XXXXX   .............      ..................",
".. XXXX  ................  .....................",
"..  XX  ........................................",
"...    .........................................",
"................................................",
"................................................",
"................................................",
"................................................",
"................................................",
"................................................",
"................................................",
"................................................"
};
